<svg width="52" height="24" viewBox="0 0 52 24" fill="none" xmlns="http://www.w3.org/2000/svg">
<path d="M51.6107 9.25536L48.9311 3.41584C47.9663 1.33947 45.8694 0.00627681 43.5585 0H5.13949C2.30208 0.00292918 0.00296225 2.27639 0 5.08212V17.7826C0.00211588 19.32 1.26191 20.5658 2.81667 20.5678H7.02008C7.43014 22.5651 9.20579 24 11.2667 24C13.3275 24 15.1032 22.5651 15.5132 20.5678H36.4868C36.8968 22.5651 38.6725 24 40.7333 24C42.7942 24 44.5699 22.5651 44.9799 20.5678H49.5909C50.9209 20.5666 51.9987 19.5008 52 18.1856V11.0296C52.0004 10.4174 51.8675 9.81232 51.6107 9.25536ZM49.7318 9.31143L41.6 8.63856V5.03902L47.4432 4.31677L49.7318 9.31143ZM11.2667 22.2818C9.83083 22.2818 8.66667 21.1307 8.66667 19.7108C8.66667 18.291 9.83083 17.1399 11.2667 17.1399C12.7025 17.1399 13.8667 18.291 13.8667 19.7108C13.8667 21.1307 12.7025 22.2818 11.2667 22.2818ZM40.7333 22.2818C39.2975 22.2818 38.1333 21.1307 38.1333 19.7108C38.1333 18.291 39.2975 17.1399 40.7333 17.1399C42.1692 17.1399 43.3333 18.291 43.3333 19.7108C43.3333 21.1307 42.1692 22.2818 40.7333 22.2818ZM49.5909 18.8539H44.9799C44.5699 16.8566 42.7942 15.4217 40.7333 15.4217C38.6725 15.4217 36.8968 16.8566 36.4868 18.8539H15.5132C15.1032 16.8566 13.3275 15.4217 11.2667 15.4217C9.20579 15.4217 7.43014 16.8566 7.02008 18.8539H2.81667C2.21872 18.853 1.73418 18.3739 1.73333 17.7826V5.08212C1.73545 3.22251 3.25889 1.71608 5.13949 1.71399H43.5585C44.5665 1.71608 45.5394 2.07846 46.2981 2.73376L40.6796 3.42797H6.93333C6.45472 3.42797 6.06667 3.8117 6.06667 4.28497V9.42693C6.06667 9.9002 6.45472 10.2839 6.93333 10.2839H40.6969L50.2667 11.0723V18.1856C50.2662 18.5542 49.9637 18.8534 49.5909 18.8539ZM7.8 8.56993V5.14196H13.8667V8.56993H7.8ZM15.6 5.14196H22.5333V8.56993H15.6V5.14196ZM24.2667 5.14196H30.3333V8.56993H24.2667V5.14196ZM32.0667 5.14196H39.8667V8.56993H32.0667V5.14196Z" fill="#5F8BFA"/>
</svg>
