<svg width="64" height="24" viewBox="0 0 64 24" fill="none" xmlns="http://www.w3.org/2000/svg">
<path d="M63.4443 14.925C62.1339 13.4492 59.341 10.9732 55.3598 10.9732H18.0417C16.954 10.9732 15.9315 10.5092 15.1622 9.66691L7.49056 1.2649C6.74584 0.449287 5.75551 0 4.70218 0H1.93942C1.62831 0 1.33757 0.168927 1.1632 0.451066C0.988708 0.733205 0.953585 1.09159 1.06908 1.40796L4.56256 10.9733H0.937461C0.419732 10.9733 0 11.433 0 12C0 12.567 0.419732 13.0267 0.937461 13.0267H3.13299C3.05087 13.3086 3.00587 13.6085 3.00587 13.9198C3.00587 15.194 3.74634 16.3179 4.84855 16.7164C8.16703 17.9166 16.6744 20.708 23.9822 20.708H33.0659C33.0654 20.7315 33.0642 20.7549 33.0642 20.7786C33.0642 22.5549 34.3837 24 36.0056 24H42.0175C42.5352 24 42.9549 23.5403 42.9549 22.9733V18.5839C42.9549 18.0169 42.5352 17.5572 42.0175 17.5572H38.1616L30.5225 14.7684C29.608 14.4345 28.6554 14.2653 27.6913 14.2653H23.9824C23.6273 14.2653 23.3026 14.485 23.1439 14.8329C22.985 15.1807 23.0193 15.597 23.2324 15.9081L25.1133 18.6546H23.9824C21.6386 18.6546 15.1396 18.2756 5.43652 14.7665C5.10416 14.6464 4.88092 14.3061 4.88092 13.9197C4.88092 13.4273 5.24678 13.0266 5.69639 13.0266H55.3599C57.0379 13.0266 58.4689 13.5689 59.6156 14.2652H58.0486C57.5308 14.2652 57.1111 14.7249 57.1111 15.2919C57.1111 15.8589 57.5308 16.3186 58.0486 16.3186H62.066C62.0773 16.3312 62.0893 16.3442 62.1003 16.3567C62.122 16.3812 62.1324 16.4191 62.1101 16.4441C61.3774 17.2697 59.7866 18.6546 57.3638 18.6546H46.0253C45.5076 18.6546 45.0879 19.1142 45.0879 19.6813C45.0879 20.2483 45.5076 20.708 46.0253 20.708H57.3638C60.476 20.708 62.5156 18.9333 63.4546 17.8754C64.1857 17.0511 64.1813 15.7551 63.4443 14.925ZM36.0056 19.6105H41.08V21.9465H36.0056C35.4175 21.9465 34.9392 21.4226 34.9392 20.7785C34.9392 20.1344 35.4175 19.6105 36.0056 19.6105ZM27.6912 16.3186C28.4534 16.3186 29.2065 16.4525 29.9295 16.7164L34.1697 18.2644C34.0353 18.3824 33.9106 18.513 33.797 18.6546H27.4568L25.8572 16.3187H27.6912V16.3186ZM6.58185 10.9732L3.32411 2.05328H4.70218C5.25465 2.05328 5.77413 2.28887 6.16474 2.7168L13.7034 10.9732H6.58185Z" fill="#5F8BFA"/>
<path d="M54.9882 15.2885C54.9882 14.7214 54.5684 14.2617 54.0507 14.2617H54.0405C53.5228 14.2617 53.108 14.7214 53.108 15.2885C53.108 15.8555 53.5328 16.3152 54.0507 16.3152C54.5685 16.3152 54.9882 15.8555 54.9882 15.2885Z" fill="#5F8BFA"/>
<path d="M42.0073 14.2617C41.4896 14.2617 41.075 14.7214 41.075 15.2885C41.075 15.8555 41.4997 16.3152 42.0175 16.3152C42.5352 16.3152 42.955 15.8555 42.955 15.2885C42.955 14.7214 42.5352 14.2617 42.0175 14.2617H42.0073Z" fill="#5F8BFA"/>
<path d="M19.9745 14.2617C19.4567 14.2617 19.042 14.7214 19.042 15.2885C19.042 15.8555 19.4667 16.3152 19.9845 16.3152C20.5022 16.3152 20.922 15.8555 20.922 15.2885C20.922 14.7214 20.5022 14.2617 19.9845 14.2617H19.9745Z" fill="#5F8BFA"/>
<path d="M46.0351 16.3152C46.5529 16.3152 46.9726 15.8555 46.9726 15.2885C46.9726 14.7214 46.5529 14.2617 46.0351 14.2617H46.0251C45.5074 14.2617 45.0927 14.7214 45.0927 15.2885C45.0927 15.8555 45.5174 16.3152 46.0351 16.3152Z" fill="#5F8BFA"/>
<path d="M37.9994 14.2617C37.4816 14.2617 37.0669 14.7214 37.0669 15.2885C37.0669 15.8555 37.4916 16.3152 38.0094 16.3152C38.5271 16.3152 38.9469 15.8555 38.9469 15.2885C38.9469 14.7214 38.5271 14.2617 38.0094 14.2617H37.9994Z" fill="#5F8BFA"/>
<path d="M50.9803 15.2885C50.9803 14.7214 50.5606 14.2617 50.0428 14.2617H50.0328C49.5151 14.2617 49.1003 14.7214 49.1003 15.2885C49.1003 15.8555 49.5251 16.3152 50.0428 16.3152C50.5606 16.3152 50.9803 15.8555 50.9803 15.2885Z" fill="#5F8BFA"/>
<path d="M15.9569 14.2617C15.4392 14.2617 15.0244 14.7214 15.0244 15.2885C15.0244 15.8555 15.4492 16.3152 15.9669 16.3152C16.4847 16.3152 16.9044 15.8555 16.9044 15.2885C16.9044 14.7214 16.4847 14.2617 15.9669 14.2617H15.9569Z" fill="#5F8BFA"/>
</svg>
