<svg width="64" height="24" viewBox="0 0 64 24" fill="none" xmlns="http://www.w3.org/2000/svg">
<path d="M50.5525 6.12159C50.1167 5.68549 49.7431 5.31169 49.3696 4.93788C43.891 -0.544535 32.6225 0.0161685 32.1867 0.0161685H5.10499C4.60694 0.0161685 4.17114 0.45227 4.17114 0.950672C4.17114 1.44907 4.60694 1.88518 5.10499 1.88518H31.7509L36.4202 7.9906C36.4824 8.1152 38.5992 10.981 41.7743 11.1679C42.7081 11.2302 44.2645 11.2302 45.9455 11.2302C49.1206 11.2302 52.6069 11.1679 52.7937 11.1679H52.856C54.6614 13.2238 56.0933 15.2797 55.533 16.5257C55.2217 17.2733 53.7276 18.5816 47.3151 18.5816H5.72756C5.22951 18.5816 4.79371 19.0177 4.79371 19.5161C4.79371 20.0145 5.22951 20.4506 5.72756 20.4506H47.3151C53.2295 20.4506 56.4046 19.3915 57.2762 17.211C58.5836 13.9714 54.3501 9.7973 50.5525 6.12159ZM41.8988 9.2366C39.5953 9.112 37.9766 6.86919 37.9143 6.80689L34.1167 1.76057C37.4163 1.82287 44.4513 2.50818 48.0622 6.12159C48.4357 6.49539 48.8715 6.93149 49.3073 7.3053C49.8676 7.866 50.5525 8.489 51.175 9.1743C48.6848 9.2989 43.891 9.3612 41.8988 9.2366Z" fill="#5F8BFA"/>
<path d="M63.0661 22.1309H0.933852C0.435798 22.1309 0 22.567 0 23.0654C0 23.5638 0.435798 23.9999 0.933852 23.9999H63.0661C63.5642 23.9999 64 23.5638 64 23.0654C64 22.567 63.5642 22.1309 63.0661 22.1309Z" fill="#5F8BFA"/>
<path d="M32.8094 10.2325L27.3308 3.87791C27.144 3.69101 26.895 3.56641 26.646 3.56641H5.72768C5.22962 3.56641 4.79382 4.00251 4.79382 4.50091V10.9801C4.79382 11.4785 5.22962 11.9146 5.72768 11.9146H32.1868C32.6849 11.9146 33.1207 11.4785 33.1207 10.9801C33.1207 10.6686 32.9962 10.4194 32.8094 10.2325ZM6.66153 10.0456V5.43541H10.8327L14.7549 10.0456H6.66153ZM17.1829 10.0456L13.2607 5.43541H18.5526L22.4748 10.0456H17.1829ZM24.9028 10.0456L20.9806 5.43541H26.2102L30.1946 10.0456H24.9028Z" fill="#5F8BFA"/>
</svg>
