<svg width="251" height="118" viewBox="0 0 251 118" fill="none" xmlns="http://www.w3.org/2000/svg">
  <path
    d="M213.481 100.187C212.781 100.187 212.243 100.729 212.243 101.423C212.243 102.118 212.781 102.66 213.481 102.66C214.177 102.66 214.717 102.118 214.717 101.423C214.717 100.729 214.177 100.187 213.481 100.187ZM213.481 102.483C212.882 102.483 212.435 102.013 212.435 101.423C212.435 100.833 212.882 100.364 213.481 100.364C214.081 100.364 214.523 100.833 214.523 101.423C214.523 102.013 214.081 102.483 213.481 102.483ZM214.046 101.103C214.046 100.845 213.899 100.709 213.583 100.709H213.029V102.139H213.209V101.503H213.502L213.905 102.139H214.107L213.689 101.503C213.877 101.469 214.046 101.355 214.046 101.103ZM213.439 101.349H213.209V100.857H213.531C213.703 100.857 213.871 100.901 213.871 101.103C213.871 101.343 213.655 101.349 213.439 101.349ZM146.967 108.583H152.668V105.885H146.967V108.583ZM140.769 105.877H135.065V100.187H131.959V114.28H135.065V108.561H140.769V114.28H143.871V100.187H140.769V105.877ZM158.873 102.79H165.687V100.187H155.777V114.28H158.873V108.459H164.781V106.053H158.873V102.79ZM170.477 100.187L165.128 114.28H168.267L169.371 111.141H174.645L175.71 114.28H178.927L173.653 100.187H170.477ZM170.185 108.833L172.015 103.66H172.053L173.831 108.833H170.185ZM189.787 107.653V107.607C191.345 106.975 192.017 105.731 192.017 104.078C192.017 101.941 190.419 100.187 187.891 100.187H180.293V114.28H183.387V108.775H186.491C188.051 108.775 188.623 109.427 188.838 110.908C188.997 112.036 188.96 113.393 189.333 114.28H192.435C191.878 113.496 191.899 111.832 191.843 110.945C191.745 109.523 191.309 108.041 189.787 107.653ZM186.787 106.559H183.387V102.593H186.787C188.167 102.593 188.919 103.185 188.919 104.547C188.919 105.971 188.167 106.559 186.787 106.559ZM202.303 109.881H202.261L198.967 100.187H194.607V114.28H197.506V104.389H197.548L200.999 114.28H203.387L206.84 104.291H206.885V114.28H209.783V100.187H205.425L202.303 109.881Z"
    fill="#58595B" />
  <path
    d="M43.5244 114.247L42.8784 112.434H38.6584L38.0244 114.247H36.5624L40.1204 104.403H41.4704L45.0144 114.247H43.5244ZM40.7544 106.427L39.0804 111.224H42.4564L40.7824 106.427H40.7544Z"
    fill="#58595B" />
  <path
    d="M54.5923 111.335L55.9563 111.673C55.8243 112.537 55.4823 113.215 54.9303 113.713C54.3763 114.211 53.6603 114.457 52.7783 114.457C51.7743 114.457 50.9563 114.106 50.3243 113.403C49.6903 112.701 49.3743 111.739 49.3743 110.519C49.3743 109.293 49.7023 108.329 50.3583 107.631C51.0143 106.931 51.8263 106.583 52.7923 106.583C53.6443 106.583 54.3563 106.837 54.9223 107.349C55.4903 107.859 55.8203 108.523 55.9143 109.339L54.5783 109.549C54.5023 109.053 54.3183 108.643 54.0223 108.319C53.7283 107.997 53.3163 107.835 52.7923 107.835C52.1643 107.835 51.6623 108.069 51.2863 108.537C50.9123 109.005 50.7243 109.667 50.7243 110.519C50.7243 111.373 50.9103 112.037 51.2803 112.509C51.6503 112.985 52.1583 113.221 52.8063 113.221C53.3303 113.221 53.7383 113.043 54.0303 112.685C54.3203 112.329 54.5083 111.879 54.5923 111.335Z"
    fill="#58595B" />
  <path
    d="M60.5698 114.457C59.5758 114.457 58.7578 114.111 58.1158 113.417C57.4738 112.724 57.1518 111.757 57.1518 110.519C57.1518 109.301 57.4798 108.339 58.1358 107.637C58.7938 106.934 59.6038 106.583 60.5698 106.583C61.5158 106.583 62.3158 106.934 62.9678 107.637C63.6198 108.339 63.9458 109.301 63.9458 110.519C63.9458 111.757 63.6278 112.724 62.9958 113.417C62.3618 114.111 61.5538 114.457 60.5698 114.457ZM60.5698 113.222C61.1698 113.222 61.6578 112.985 62.0318 112.509C62.4078 112.035 62.5958 111.373 62.5958 110.519C62.5958 109.675 62.4078 109.02 62.0318 108.543C61.6578 108.069 61.1698 107.835 60.5698 107.835C59.9518 107.835 59.4518 108.065 59.0718 108.531C58.6918 108.993 58.5018 109.657 58.5018 110.519C58.5018 111.383 58.6938 112.049 59.0798 112.518C59.4638 112.985 59.9598 113.222 60.5698 113.222Z"
    fill="#58595B" />
  <path
    d="M65.7031 114.247V106.793H66.9391V107.511H66.9691C67.1471 107.239 67.4071 107.016 67.7491 106.843C68.0911 106.669 68.4551 106.583 68.8391 106.583C69.2791 106.583 69.6651 106.684 69.9991 106.885C70.3311 107.087 70.5871 107.337 70.7651 107.637H70.7931C70.9911 107.348 71.2711 107.098 71.6371 106.893C72.0031 106.685 72.4111 106.583 72.8611 106.583C73.6851 106.583 74.3371 106.817 74.8171 107.285C75.2951 107.753 75.5331 108.383 75.5331 109.171V114.247H74.2391V109.521C74.2391 108.405 73.7571 107.85 72.7911 107.85C72.3131 107.85 71.9411 107.989 71.6791 108.271C71.4171 108.551 71.2871 108.937 71.2871 109.423V114.247H69.9931V109.521C69.9931 108.405 69.5091 107.85 68.5431 107.85C68.0471 107.85 67.6711 107.997 67.4191 108.291C67.1651 108.587 67.0391 108.963 67.0391 109.423V114.247H65.7031Z"
    fill="#58595B" />
  <path
    d="M77.7134 117.411V106.793H79.0214V107.511H79.0494C79.1434 107.389 79.2654 107.266 79.4154 107.144C79.5654 107.023 79.7994 106.899 80.1174 106.773C80.4374 106.644 80.7794 106.583 81.1454 106.583C82.0534 106.583 82.8254 106.941 83.4574 107.657C84.0914 108.375 84.4074 109.329 84.4074 110.521C84.4074 111.728 84.1034 112.689 83.4934 113.397C82.8834 114.105 82.1054 114.457 81.1594 114.457C80.6534 114.457 80.2214 114.355 79.8654 114.149C79.5094 113.943 79.2554 113.737 79.1054 113.529H79.0774V117.411H77.7134ZM79.0774 109.549V111.631C79.0774 112.06 79.2474 112.434 79.5914 112.749C79.9314 113.063 80.3654 113.221 80.8914 113.221C81.5674 113.221 82.0934 112.985 82.4734 112.509C82.8534 112.037 83.0434 111.373 83.0434 110.521C83.0434 109.667 82.8534 109.005 82.4734 108.537C82.0934 108.069 81.5674 107.835 80.8914 107.835C80.3474 107.835 79.9094 108.007 79.5754 108.355C79.2434 108.701 79.0774 109.1 79.0774 109.549Z"
    fill="#58595B" />
  <path
    d="M90.4561 114.247V113.459H90.4281C90.3241 113.667 90.0821 113.885 89.7041 114.113C89.3241 114.343 88.8341 114.457 88.2341 114.457C87.3801 114.457 86.7401 114.253 86.3141 113.845C85.8881 113.439 85.6741 112.925 85.6741 112.306C85.6741 111.68 85.8641 111.191 86.2441 110.845C86.6241 110.497 87.2681 110.211 88.1781 109.985C88.9841 109.781 89.5301 109.601 89.8161 109.451C90.1021 109.301 90.2461 109.081 90.2461 108.791C90.2461 108.499 90.1241 108.257 89.8801 108.065C89.6361 107.875 89.2701 107.779 88.7821 107.779C87.8541 107.779 87.2781 108.247 87.0521 109.184L85.8561 108.761C85.9881 108.115 86.3021 107.591 86.7981 107.187C87.2961 106.783 87.9481 106.583 88.7541 106.583C89.6261 106.583 90.3261 106.806 90.8561 107.251C91.3861 107.697 91.6521 108.387 91.6521 109.325V114.247H90.4561ZM88.4861 110.983C87.9041 111.145 87.5141 111.317 87.3121 111.505C87.1101 111.693 87.0101 111.932 87.0101 112.224C87.0101 112.905 87.4601 113.249 88.3601 113.249C88.9881 113.249 89.4701 113.113 89.8081 112.839C90.1461 112.569 90.3141 112.235 90.3141 111.841V110.169H90.2861C90.2501 110.253 90.1921 110.325 90.1181 110.387C90.0421 110.447 89.8701 110.531 89.5981 110.642C89.3261 110.747 88.9561 110.861 88.4861 110.983Z"
    fill="#58595B" />
  <path
    d="M93.7603 114.247V106.793H95.0963V107.511H95.1243C95.3223 107.249 95.6063 107.027 95.9823 106.85C96.3563 106.671 96.7503 106.583 97.1623 106.583C97.9783 106.583 98.6303 106.831 99.1183 107.327C99.6063 107.825 99.8503 108.505 99.8503 109.367V114.247H98.4723V109.761C98.4723 108.485 97.9463 107.85 96.8963 107.85C96.3623 107.85 95.9323 108.001 95.6103 108.306C95.2863 108.609 95.1243 109.029 95.1243 109.563V114.247H93.7603Z"
    fill="#58595B" />
  <path
    d="M106.347 106.793L104.323 112.123L102.283 106.793H100.849L103.661 113.727L102.227 117.411H103.563L107.755 106.793H106.347Z"
    fill="#58595B" />
  <path
    d="M115.53 114.457C114.536 114.457 113.718 114.111 113.076 113.417C112.434 112.724 112.112 111.757 112.112 110.519C112.112 109.301 112.44 108.339 113.096 107.637C113.754 106.934 114.564 106.583 115.53 106.583C116.476 106.583 117.276 106.934 117.928 107.637C118.58 108.339 118.906 109.301 118.906 110.519C118.906 111.757 118.588 112.724 117.956 113.417C117.322 114.111 116.514 114.457 115.53 114.457ZM115.53 113.222C116.13 113.222 116.618 112.985 116.992 112.509C117.368 112.035 117.556 111.373 117.556 110.519C117.556 109.675 117.368 109.02 116.992 108.543C116.618 108.069 116.13 107.835 115.53 107.835C114.912 107.835 114.412 108.065 114.032 108.531C113.652 108.993 113.462 109.657 113.462 110.519C113.462 111.383 113.654 112.049 114.04 112.518C114.424 112.985 114.92 113.222 115.53 113.222Z"
    fill="#58595B" />
  <path
    d="M120.988 114.247V107.989H119.89V106.793H121.016V105.695C121.016 105.069 121.166 104.625 121.466 104.367C121.766 104.109 122.192 103.981 122.746 103.981H123.9V105.217H123.012C122.75 105.217 122.572 105.271 122.478 105.373C122.384 105.476 122.338 105.684 122.338 105.993V106.793H124.194V107.989H122.366V114.247H120.988Z"
    fill="#58595B" />
  <path
    d="M244.131 0.690395C243.919 0.824395 243.732 0.956397 243.545 1.0904L223.167 20.8824V16.7004V13.9284C223.033 11.0784 222.022 8.70839 220.131 6.81639C218.159 4.84639 215.709 3.83439 212.751 3.75439C211.287 3.78039 209.955 4.04639 208.703 4.58039C208.543 4.65839 208.358 4.74039 208.144 4.81839L191.255 12.4384C182.971 16.1404 175.245 19.5224 168.027 22.5604L187.765 18.1124L206.52 13.8764C206.625 13.8484 206.732 13.8224 206.839 13.7964C206.999 13.7704 207.157 13.7424 207.318 13.7424C208.144 13.7704 208.835 14.0624 209.396 14.5944C209.875 15.0744 210.141 15.6604 210.221 16.3544C210.247 16.4604 210.247 16.5664 210.247 16.6724C210.247 16.7804 210.247 16.8864 210.221 16.9664L210.247 40.5404L236.274 15.3944C236.407 15.3144 236.539 15.2604 236.699 15.2604C236.885 15.2604 237.071 15.3404 237.205 15.4744C237.312 15.5804 237.365 15.7144 237.391 15.8744V15.9544V16.0344V56.3364H240.507C242.319 56.2844 243.971 55.8044 245.438 54.9244C246.155 54.4984 246.821 53.9924 247.407 53.3804C249.245 51.5424 250.232 49.2504 250.365 46.4804V3.40839C250.285 2.98039 250.125 2.5824 249.885 2.2084C249.245 1.1964 248.394 0.556397 247.301 0.264397C246.209 -0.0296033 245.169 0.130395 244.131 0.690395Z"
    fill="#B82026" />
  <path d="M150.113 59.309H158.798V0.119019H150.113V59.309Z" fill="#B82026" />
  <path
    d="M131.228 52.2236C125.102 52.2236 120.84 50.8916 118.416 48.2016C117.404 47.0036 116.684 45.4036 116.258 43.4596C115.858 41.4616 115.644 38.6116 115.644 34.8556V0.119602H106.934V35.6816C106.934 37.9456 107.014 39.9436 107.2 41.7276C107.388 43.5136 107.626 45.0856 107.974 46.4696C108.32 47.8556 108.8 49.1076 109.412 50.2256C110.024 51.3176 110.77 52.3296 111.65 53.2616C113.62 55.4736 115.992 57.0196 118.788 57.9516C121.558 58.8556 125.182 59.3096 129.684 59.3096H143.934V52.2236H131.228Z"
    fill="#B82026" />
  <path
    d="M52.6997 31.0996C52.6997 35.5476 53.1257 39.3836 53.9517 42.5536C54.7777 45.7496 56.1617 48.7336 58.0537 51.4776C59.0937 52.9696 60.2657 54.1936 61.5697 55.1796C62.8757 56.1656 64.3397 56.9656 65.9377 57.5776C67.5097 58.1896 69.3217 58.6156 71.3457 58.9096C73.3697 59.1756 75.6617 59.3096 78.1917 59.3096H97.1857V52.2236H79.7897C75.9017 52.2236 72.8637 51.6916 70.6797 50.6256C68.5217 49.5336 66.7117 47.6956 65.2457 45.0576C63.4617 41.6756 62.5557 37.7056 62.5557 33.0976H97.1857V26.0116H62.5557C62.5557 24.5996 62.6097 23.3476 62.7157 22.2296C62.8497 21.1376 63.0357 20.1516 63.2217 19.2996C63.4617 18.4196 63.7017 17.6216 63.9937 16.8476C64.3137 16.0756 64.7137 15.3036 65.1657 14.5036C65.9117 13.1456 66.7117 12.0276 67.5897 11.0936C68.4697 10.1616 69.4817 9.4176 70.6797 8.8296C71.8797 8.2436 73.2637 7.8456 74.8357 7.6056C76.4077 7.3396 78.2197 7.2056 80.3237 7.2056H97.1857V0.119602H80.9617C76.6477 0.119602 73.0517 0.493602 70.1477 1.2376C67.2437 1.9836 64.7937 3.1556 62.7697 4.7556C56.0557 10.2416 52.6997 19.0336 52.6997 31.0996Z"
    fill="#B82026" />
  <path
    d="M29.7109 7.2056H47.7449V0.119602H29.1789C24.9949 0.119602 21.4789 0.439601 18.6289 1.0516C15.7789 1.6656 13.3549 2.6236 11.3849 3.9556C9.8129 5.1536 8.3749 6.6456 7.0429 8.4576C5.7369 10.2696 4.6449 12.2936 3.7129 14.5576C2.8329 16.8216 2.1409 19.2456 1.6349 21.8836C1.1549 24.4936 0.914902 27.1836 0.914902 29.9796C0.914902 34.5896 1.5549 38.8776 2.8609 42.8476C4.1649 46.8156 5.9769 50.0396 8.2949 52.5436C9.4669 53.7956 10.7189 54.8336 12.0509 55.6856C13.3829 56.5376 14.9009 57.2316 16.6309 57.7916C18.3629 58.3236 20.2809 58.7236 22.4129 58.9636C24.5429 59.2016 26.9669 59.3096 29.6849 59.3096H47.7449V52.2236H30.4829C28.5129 52.2236 26.7809 52.1436 25.3149 51.9836C23.8509 51.8496 22.5729 51.6116 21.4529 51.2636C20.3069 50.9176 19.3229 50.4916 18.4689 49.9596C17.6449 49.4256 16.8449 48.7336 16.0989 47.8556C14.3949 45.9376 13.0889 43.5136 12.1569 40.5556C11.2249 37.5716 10.7709 34.1896 10.7709 30.3796C10.7709 26.5716 11.1709 23.0556 11.9969 19.8056C12.7969 16.5556 13.9149 13.9456 15.3789 11.9996C16.0729 11.1216 16.8189 10.3756 17.6429 9.7636C18.4689 9.1496 19.4289 8.6696 20.5209 8.2716C21.6129 7.8716 22.9189 7.6056 24.4089 7.4456C25.9009 7.2856 27.6589 7.2056 29.7109 7.2056Z"
    fill="#B82026" />
  <path
    d="M8.6851 84.5977V82.4147H3.4831V72.3747H1.0531V84.5977H8.6851ZM22.3651 84.5977L17.8291 72.3747H15.7591L11.2051 84.5977H13.6171L14.3371 82.5897H19.1431L19.8631 84.5977H22.3651ZM16.7671 75.8677L18.4591 80.6337H15.0211L16.7311 75.8677H16.7671ZM28.4851 84.5977V76.5827H28.5211L33.1831 84.5977H35.5771V72.3747H33.1291V80.3897H33.0931L28.4851 72.3747H26.0551V84.5977H28.4851ZM48.8611 83.5057C49.7611 82.6037 50.2111 81.3797 50.2111 79.8307V78.2067H45.5491V80.2157H47.8891C47.8891 80.9947 47.6631 81.5997 47.2131 82.0317C46.7631 82.4607 46.1491 82.6777 45.3691 82.6777C44.5051 82.6777 43.7931 82.3197 43.2351 81.6037C42.6771 80.8877 42.3991 79.7857 42.3991 78.2927C42.3991 77.0257 42.6871 76.0407 43.2631 75.3437C43.8391 74.6457 44.5411 74.2947 45.3691 74.2947C46.6771 74.2947 47.4811 75.0807 47.7811 76.6537L50.2111 76.2697C50.0311 74.9897 49.4931 73.9757 48.5991 73.2317C47.7051 72.4857 46.6231 72.1137 45.3511 72.1137C43.8631 72.1137 42.5811 72.6607 41.5071 73.7557C40.4331 74.8497 39.8971 76.3617 39.8971 78.2927C39.8971 80.4937 40.4031 82.1397 41.4171 83.2277C42.4311 84.3157 43.7491 84.8597 45.3691 84.8597C46.7971 84.8597 47.9611 84.4077 48.8611 83.5057ZM55.5471 83.7677C56.4051 84.4947 57.5551 84.8597 58.9951 84.8597C60.4351 84.8597 61.5871 84.4947 62.4511 83.7677C63.3151 83.0407 63.7471 81.9897 63.7471 80.6177V72.3747H61.3171V80.5477C61.3171 81.1997 61.1191 81.7177 60.7231 82.1017C60.3271 82.4857 59.7511 82.6777 58.9951 82.6777C58.2391 82.6777 57.6651 82.4817 57.2751 82.0917C56.8851 81.7017 56.6911 81.1757 56.6911 80.5117V72.3747H54.2611V80.6177C54.2611 81.9897 54.6891 83.0407 55.5471 83.7677ZM77.7871 84.5977L73.2511 72.3747H71.1811L66.6271 84.5977H69.0391L69.7591 82.5897H74.5651L75.2851 84.5977H77.7871ZM72.1891 75.8677L73.8811 80.6337H70.4431L72.1531 75.8677H72.1891ZM89.3611 83.5057C90.2611 82.6037 90.7111 81.3797 90.7111 79.8307V78.2067H86.0491V80.2157H88.3891C88.3891 80.9947 88.1631 81.5997 87.7131 82.0317C87.2631 82.4607 86.6491 82.6777 85.8691 82.6777C85.0051 82.6777 84.2931 82.3197 83.7351 81.6037C83.1771 80.8877 82.8991 79.7857 82.8991 78.2927C82.8991 77.0257 83.1871 76.0407 83.7631 75.3437C84.3391 74.6457 85.0411 74.2947 85.8691 74.2947C87.1771 74.2947 87.9811 75.0807 88.2811 76.6537L90.7111 76.2697C90.5311 74.9897 89.9931 73.9757 89.0991 73.2317C88.2051 72.4857 87.1231 72.1137 85.8511 72.1137C84.3631 72.1137 83.0811 72.6607 82.0071 73.7557C80.9331 74.8497 80.3971 76.3617 80.3971 78.2927C80.3971 80.4937 80.9031 82.1397 81.9171 83.2277C82.9311 84.3157 84.2491 84.8597 85.8691 84.8597C87.2971 84.8597 88.4611 84.4077 89.3611 83.5057ZM103.005 84.5977V82.4147H97.4611V79.3937H102.501V77.2997H97.4611V74.5577H103.005V72.3747H95.0311V84.5977H103.005ZM124.179 84.5977V74.5577H127.869V72.3747H118.059V74.5577H121.749V84.5977H124.179ZM139.623 84.5977V82.4147H134.079V79.3937H139.119V77.2997H134.079V74.5577H139.623V72.3747H131.649V84.5977H139.623ZM148.965 82.6777C148.102 82.6777 147.39 82.3197 146.831 81.6037C146.273 80.8877 145.995 79.7857 145.995 78.2927C145.995 77.0257 146.283 76.0407 146.859 75.3437C147.435 74.6457 148.138 74.2947 148.965 74.2947C149.697 74.2947 150.262 74.5317 150.657 75.0027C151.054 75.4757 151.306 76.0827 151.413 76.8267L153.825 76.4607C153.682 75.1337 153.155 74.0767 152.249 73.2907C151.344 72.5057 150.243 72.1137 148.947 72.1137C147.459 72.1137 146.178 72.6607 145.103 73.7557C144.029 74.8497 143.493 76.3617 143.493 78.2927C143.493 80.4937 143.999 82.1397 145.014 83.2277C146.027 84.3157 147.346 84.8597 148.965 84.8597C150.357 84.8597 151.485 84.4517 152.35 83.6377C153.213 82.8237 153.747 81.7047 153.951 80.2857L151.432 79.7437C151.203 81.6997 150.381 82.6777 148.965 82.6777ZM160.611 84.5977V79.3077H164.932V84.5977H167.361V72.3747H164.932V77.2997H160.611V72.3747H158.182V84.5977H160.611ZM174.831 84.5977V76.5827H174.867L179.529 84.5977H181.923V72.3747H179.476V80.3897H179.439L174.831 72.3747H172.401V84.5977H174.831ZM188.764 78.3817C188.764 77.0557 189.043 76.0407 189.609 75.3437C190.171 74.6457 190.873 74.2947 191.715 74.2947C192.543 74.2947 193.241 74.6457 193.811 75.3437C194.381 76.0407 194.667 77.0557 194.667 78.3817C194.667 79.8957 194.39 80.9917 193.839 81.6737C193.285 82.3537 192.579 82.6937 191.715 82.6937C190.852 82.6937 190.142 82.3477 189.591 81.6557C189.037 80.9637 188.764 79.8707 188.764 78.3817ZM195.485 83.3837C196.007 82.8897 196.421 82.2137 196.727 81.3597C197.033 80.5027 197.187 79.5117 197.187 78.3817C197.187 77.3687 197.033 76.4547 196.727 75.6397C196.421 74.8257 196.007 74.1647 195.485 73.6597C194.963 73.1517 194.381 72.7677 193.739 72.5057C193.098 72.2447 192.421 72.1137 191.715 72.1137C191.005 72.1137 190.331 72.2447 189.689 72.5057C189.047 72.7677 188.465 73.1517 187.943 73.6597C187.421 74.1647 187.007 74.8257 186.701 75.6397C186.395 76.4547 186.243 77.3687 186.243 78.3817C186.243 79.5117 186.395 80.5027 186.701 81.3597C187.007 82.2137 187.421 82.8897 187.943 83.3837C188.465 83.8797 189.043 84.2467 189.682 84.4937C190.315 84.7377 190.995 84.8597 191.715 84.8597C192.435 84.8597 193.111 84.7377 193.749 84.4937C194.383 84.2467 194.963 83.8797 195.485 83.3837ZM209.138 84.5977V82.4147H203.935V72.3747H201.505V84.5977H209.138ZM214.447 78.3817C214.447 77.0557 214.729 76.0407 215.293 75.3437C215.857 74.6457 216.56 74.2947 217.399 74.2947C218.227 74.2947 218.928 74.6457 219.497 75.3437C220.067 76.0407 220.352 77.0557 220.352 78.3817C220.352 79.8957 220.075 80.9917 219.523 81.6737C218.972 82.3537 218.264 82.6937 217.399 82.6937C216.535 82.6937 215.827 82.3477 215.275 81.6557C214.724 80.9637 214.447 79.8707 214.447 78.3817ZM221.171 83.3837C221.693 82.8897 222.107 82.2137 222.413 81.3597C222.72 80.5027 222.871 79.5117 222.871 78.3817C222.871 77.3687 222.72 76.4547 222.413 75.6397C222.107 74.8257 221.693 74.1647 221.171 73.6597C220.649 73.1517 220.067 72.7677 219.426 72.5057C218.783 72.2447 218.107 72.1137 217.399 72.1137C216.691 72.1137 216.018 72.2447 215.375 72.5057C214.733 72.7677 214.151 73.1517 213.629 73.6597C213.107 74.1647 212.693 74.8257 212.388 75.6397C212.081 76.4547 211.928 77.3687 211.928 78.3817C211.928 79.5117 212.081 80.5027 212.388 81.3597C212.693 82.2137 213.107 82.8897 213.629 83.3837C214.151 83.8797 214.729 84.2467 215.365 84.4937C216.001 84.7377 216.68 84.8597 217.399 84.8597C218.119 84.8597 218.797 84.7377 219.434 84.4937C220.069 84.2467 220.649 83.8797 221.171 83.3837ZM235.435 83.5057C236.335 82.6037 236.785 81.3797 236.785 79.8307V78.2067H232.123V80.2157H234.463C234.463 80.9947 234.239 81.5997 233.789 82.0317C233.339 82.4607 232.724 82.6777 231.943 82.6777C231.079 82.6777 230.369 82.3197 229.811 81.6037C229.253 80.8877 228.974 79.7857 228.974 78.2927C228.974 77.0257 229.262 76.0407 229.837 75.3437C230.413 74.6457 231.115 74.2947 231.943 74.2947C233.251 74.2947 234.056 75.0807 234.355 76.6537L236.785 76.2697C236.605 74.9897 236.069 73.9757 235.176 73.2317C234.281 72.4857 233.197 72.1137 231.926 72.1137C230.437 72.1137 229.157 72.6607 228.083 73.7557C227.01 74.8497 226.472 76.3617 226.472 78.2927C226.472 80.4937 226.979 82.1397 227.993 83.2277C229.007 84.3157 230.323 84.8597 231.943 84.8597C233.371 84.8597 234.535 84.4077 235.435 83.5057ZM245.659 84.5977V79.4477L249.781 72.3747H247.171L244.472 77.3877H244.435L241.735 72.3747H239.125L243.247 79.4477V84.5977H245.659Z"
    fill="#58595B" />
</svg>